<svg width="69" height="65" viewBox="0 0 69 65" fill="none" xmlns="http://www.w3.org/2000/svg">
<g id="adult-18-svgrepo-com 1">
<path id="Vector" d="M55.9188 52.5958C51.6985 56.5764 46.3196 59.2884 40.4628 60.3885C34.606 61.4886 28.5343 60.9275 23.0161 58.7762C17.4979 56.6249 12.781 52.98 9.46231 48.3027C6.1436 43.6254 4.37219 38.1259 4.37219 32.5C4.37219 26.8741 6.1436 21.3746 9.46231 16.6973C12.781 12.02 17.4979 8.37513 23.0161 6.2238C28.5343 4.07248 34.606 3.51139 40.4628 4.61152C46.3196 5.71166 51.6985 8.42358 55.9188 12.4042" stroke="#F2EDE7" stroke-width="4" stroke-miterlimit="10"/>
<path id="Vector_2" d="M40.0488 22.1541H37.3175C34.2848 22.1541 31.8263 24.47 31.8263 27.327C31.8263 30.1839 34.2848 32.4999 37.3175 32.4999H40.0488C43.0815 32.4999 45.54 30.1839 45.54 27.327C45.54 24.47 43.0815 22.1541 40.0488 22.1541Z" stroke="#F2EDE7" stroke-width="4" stroke-miterlimit="10"/>
<path id="Vector_3" d="M40.0488 32.5H37.3175C34.2848 32.5 31.8263 34.816 31.8263 37.6729C31.8263 40.5298 34.2848 42.8458 37.3175 42.8458H40.0488C43.0815 42.8458 45.54 40.5298 45.54 37.6729C45.54 34.816 43.0815 32.5 40.0488 32.5Z" stroke="#F2EDE7" stroke-width="4" stroke-miterlimit="10"/>
<path id="Vector_4" d="M20.8438 19.5813V42.8459" stroke="#F2EDE7" stroke-width="4" stroke-miterlimit="10"/>
<path id="Vector_5" d="M15.3525 42.8459H26.335" stroke="#F2EDE7" stroke-width="4" stroke-miterlimit="10"/>
<path id="Vector_6" d="M15.3525 24.7542H23.575" stroke="#F2EDE7" stroke-width="4" stroke-miterlimit="10"/>
<path id="Vector_7" d="M51.0313 32.5H67.505" stroke="#F2EDE7" stroke-width="4" stroke-miterlimit="10"/>
<path id="Vector_8" d="M59.2537 24.7542V40.2458" stroke="#F2EDE7" stroke-width="4" stroke-miterlimit="10"/>
</g>
</svg>
