<svg width="27" height="26" viewBox="0 0 27 26" fill="none" xmlns="http://www.w3.org/2000/svg">
<g id="calendar-svgrepo-com 1" clip-path="url(#clip0_32_2655)">
<path id="Vector" d="M25.3125 26H1.6875C0.756844 26 0 25.2712 0 24.375V4.0625C0 3.16631 0.756844 2.4375 1.6875 2.4375H8.4375V0.8125C8.4375 0.364 8.8155 0 9.28125 0C9.747 0 10.125 0.364 10.125 0.8125V2.4375H16.875V0.8125C16.875 0.364 17.253 0 17.7188 0C18.1845 0 18.5625 0.364 18.5625 0.8125V2.4375H25.3125C26.2432 2.4375 27 3.16631 27 4.0625V24.375C27 25.2712 26.2432 26 25.3125 26ZM18.5625 4.0625V4.875C18.5625 5.3235 18.1845 5.6875 17.7188 5.6875C17.253 5.6875 16.875 5.3235 16.875 4.875V4.0625H10.125V4.875C10.125 5.3235 9.747 5.6875 9.28125 5.6875C8.8155 5.6875 8.4375 5.3235 8.4375 4.875V4.0625H1.6875V24.375H25.31L25.3125 4.0625H18.5625ZM21.0938 19.5H19.4062C18.9405 19.5 18.5625 19.136 18.5625 18.6875V17.0625C18.5625 16.614 18.9405 16.25 19.4062 16.25H21.0938C21.5595 16.25 21.9375 16.614 21.9375 17.0625V18.6875C21.9375 19.136 21.5595 19.5 21.0938 19.5ZM21.0938 13H19.4062C18.9405 13 18.5625 12.636 18.5625 12.1875V10.5625C18.5625 10.114 18.9405 9.75 19.4062 9.75H21.0938C21.5595 9.75 21.9375 10.114 21.9375 10.5625V12.1875C21.9375 12.636 21.5595 13 21.0938 13ZM14.3438 19.5H12.6562C12.1905 19.5 11.8125 19.136 11.8125 18.6875V17.0625C11.8125 16.614 12.1905 16.25 12.6562 16.25H14.3438C14.8095 16.25 15.1875 16.614 15.1875 17.0625V18.6875C15.1875 19.136 14.8095 19.5 14.3438 19.5ZM14.3438 13H12.6562C12.1905 13 11.8125 12.636 11.8125 12.1875V10.5625C11.8125 10.114 12.1905 9.75 12.6562 9.75H14.3438C14.8095 9.75 15.1875 10.114 15.1875 10.5625V12.1875C15.1875 12.636 14.8095 13 14.3438 13ZM7.59375 19.5H5.90625C5.4405 19.5 5.0625 19.136 5.0625 18.6875V17.0625C5.0625 16.614 5.4405 16.25 5.90625 16.25H7.59375C8.0595 16.25 8.4375 16.614 8.4375 17.0625V18.6875C8.4375 19.136 8.0595 19.5 7.59375 19.5ZM7.59375 13H5.90625C5.4405 13 5.0625 12.636 5.0625 12.1875V10.5625C5.0625 10.114 5.4405 9.75 5.90625 9.75H7.59375C8.0595 9.75 8.4375 10.114 8.4375 10.5625V12.1875C8.4375 12.636 8.0595 13 7.59375 13Z" fill="#F2EDE7"/>
</g>
<defs>
<clipPath id="clip0_32_2655">
<rect width="27" height="26" fill="white"/>
</clipPath>
</defs>
</svg>
