<svg width="69" height="66" viewBox="0 0 69 66" fill="none" xmlns="http://www.w3.org/2000/svg">
<g id="profile-circle-svgrepo-com 1">
<path id="Vector" d="M34.845 36.1449C34.6438 36.1174 34.385 36.1174 34.155 36.1449C29.095 35.9799 25.0699 32.0199 25.0699 27.1523C25.0699 22.1748 29.2675 18.1323 34.5 18.1323C39.7038 18.1323 43.93 22.1748 43.93 27.1523C43.9013 32.0199 39.905 35.9799 34.845 36.1449Z" stroke="#F2EDE7" stroke-width="4" stroke-linecap="round" stroke-linejoin="round"/>
<path id="Vector_2" d="M53.8775 54.2953C48.76 58.7778 41.975 61.5003 34.5 61.5003C27.025 61.5003 20.24 58.7778 15.1225 54.2953C15.41 51.7103 17.135 49.1803 20.2113 47.2003C28.0888 42.1953 40.9687 42.1953 48.7887 47.2003C51.865 49.1803 53.59 51.7103 53.8775 54.2953Z" stroke="#F2EDE7" stroke-width="4" stroke-linecap="round" stroke-linejoin="round"/>
<path id="Vector_3" d="M34.5 61.5C50.378 61.5 63.25 49.1877 63.25 34C63.25 18.8122 50.378 6.5 34.5 6.5C18.6218 6.5 5.75 18.8122 5.75 34C5.75 49.1877 18.6218 61.5 34.5 61.5Z" stroke="#F2EDE7" stroke-width="4" stroke-linecap="round" stroke-linejoin="round"/>
</g>
</svg>
