<svg width="31" height="29" viewBox="0 0 31 29" fill="none" xmlns="http://www.w3.org/2000/svg">
<g id="profiles-user-svgrepo-com 1" clip-path="url(#clip0_15_303)">
<g id="Group">
<g id="Group_2">
<path id="Vector" d="M13.1613 4.13958C12.0442 3.05043 10.5592 2.45068 8.97981 2.45068C7.3998 2.45068 5.9148 3.05043 4.79833 4.13958C2.49276 6.38721 2.49276 10.045 4.79833 12.2932C5.9148 13.3823 7.3998 13.9821 8.97981 13.9821C10.5592 13.9821 12.0442 13.3823 13.1613 12.2932C15.4669 10.045 15.4669 6.38721 13.1613 4.13958ZM12.0714 11.6278C11.2166 12.366 10.1314 12.7737 8.97981 12.7737C7.83919 12.7737 6.76441 12.3745 5.91359 11.6502V11.0409C5.91359 10.4084 6.34989 9.83078 6.98286 9.60776L8.97981 11.5545L10.9768 9.60776C11.6164 9.83344 12.0714 10.4196 12.0714 11.0341V11.6278ZM11.2412 8.42096L10.624 8.24307L8.97981 9.84583L7.33566 8.24307L6.7166 8.42155C5.78718 8.69313 5.07953 9.40019 4.80377 10.2564C3.92869 8.54935 4.21667 6.41559 5.67456 4.99391C6.55745 4.13309 7.73081 3.65902 8.97981 3.65902C10.2282 3.65902 11.4022 4.13309 12.2851 4.99391C13.7337 6.40662 14.0263 8.52209 13.1714 10.2236C12.8852 9.38538 12.1726 8.69319 11.2412 8.42096Z" fill="#F2EDE7"/>
</g>
</g>
<g id="Group_3">
<g id="Group_4">
<path id="Vector_2" d="M8.97984 4.33203C7.83492 4.33203 6.90302 5.24035 6.90302 6.35693C6.90302 7.47352 7.83492 8.38184 8.97984 8.38184C10.1248 8.38184 11.0567 7.47352 11.0567 6.35693C11.0567 5.24035 10.1248 4.33203 8.97984 4.33203ZM8.97984 7.1735C8.51812 7.1735 8.14233 6.80711 8.14233 6.35693C8.14233 5.90676 8.51812 5.54036 8.97984 5.54036C9.44156 5.54036 9.81734 5.90676 9.81734 6.35693C9.81734 6.80711 9.44156 7.1735 8.97984 7.1735Z" fill="#F2EDE7"/>
</g>
</g>
<g id="Group_5">
<g id="Group_6">
<path id="Vector_3" d="M30.3846 24.7708V0H0.641052V24.7708H9.93592V27.7917H7.45729V29H23.5684V27.7917H21.0898V24.7708H30.3846ZM1.88037 1.20833H29.1453V19.9375H1.88037V1.20833ZM19.8505 27.7917H11.1752V24.7708H19.8505V27.7917ZM1.88037 23.5625V21.1458H29.1453V23.5625H1.88037Z" fill="#F2EDE7"/>
</g>
</g>
<g id="Group_7">
<g id="Group_8">
<path id="Vector_4" d="M14.276 15.1042H3.68604V16.3126H14.276V15.1042Z" fill="#F2EDE7"/>
</g>
</g>
<g id="Group_9">
<g id="Group_10">
<path id="Vector_5" d="M12.417 17.5208H5.54498V18.7291H12.417V17.5208Z" fill="#F2EDE7"/>
</g>
</g>
<g id="Group_11">
<g id="Group_12">
<path id="Vector_6" d="M26.1741 4.13958C25.057 3.05043 23.572 2.45068 21.9926 2.45068C20.4126 2.45068 18.9276 3.05043 17.8111 4.13958C15.5056 6.38721 15.5056 10.045 17.8111 12.2932C18.9276 13.3823 20.4126 13.9821 21.9926 13.9821C23.572 13.9821 25.057 13.3823 26.1741 12.2932C28.4797 10.045 28.4797 6.38721 26.1741 4.13958ZM25.0843 11.6278C24.2294 12.366 23.1442 12.7737 21.9926 12.7737C20.852 12.7737 19.7772 12.3745 18.9264 11.6502V11.0409C18.9264 10.4084 19.3627 9.83078 19.9957 9.60776L21.9926 11.5545L23.9896 9.60776C24.6292 9.83344 25.0843 10.4196 25.0843 11.0341V11.6278ZM24.254 8.42096L23.6368 8.24307L21.9926 9.84583L20.3485 8.24307L19.7294 8.42155C18.8 8.69313 18.0923 9.40019 17.8166 10.2564C16.9415 8.54935 17.2295 6.41559 18.6874 4.99391C19.5703 4.13309 20.7436 3.65902 21.9926 3.65902C23.241 3.65902 24.415 4.13309 25.2979 4.99391C26.7465 6.40662 27.0391 8.52209 26.1842 10.2236C25.898 9.38538 25.1854 8.69319 24.254 8.42096Z" fill="#F2EDE7"/>
</g>
</g>
<g id="Group_13">
<g id="Group_14">
<path id="Vector_7" d="M21.9927 4.33203C20.8477 4.33203 19.9158 5.24035 19.9158 6.35693C19.9158 7.47352 20.8477 8.38184 21.9927 8.38184C23.1376 8.38184 24.0695 7.47352 24.0695 6.35693C24.0695 5.24035 23.1376 4.33203 21.9927 4.33203ZM21.9927 7.1735C21.5309 7.1735 21.1551 6.80711 21.1551 6.35693C21.1551 5.90676 21.5309 5.54036 21.9927 5.54036C22.4544 5.54036 22.8302 5.90676 22.8302 6.35693C22.8302 6.80711 22.4544 7.1735 21.9927 7.1735Z" fill="#F2EDE7"/>
</g>
</g>
<g id="Group_15">
<g id="Group_16">
<path id="Vector_8" d="M27.2888 15.1042H16.6989V16.3126H27.2888V15.1042Z" fill="#F2EDE7"/>
</g>
</g>
<g id="Group_17">
<g id="Group_18">
<path id="Vector_9" d="M25.4298 17.5208H18.5578V18.7291H25.4298V17.5208Z" fill="#F2EDE7"/>
</g>
</g>
</g>
<defs>
<clipPath id="clip0_15_303">
<rect width="29.7436" height="29" fill="white" transform="translate(0.641052)"/>
</clipPath>
</defs>
</svg>
