<svg width="36" height="34" viewBox="0 0 36 34" fill="none" xmlns="http://www.w3.org/2000/svg">
<g id="users-svgrepo-com 1">
<path id="Vector" d="M12.0743 16.0065L6.18204 18.9638C5.45623 19.328 5.00005 20.0572 5.00005 20.8531V21.9583C5.00005 23.1319 5.97585 24.0833 7.17964 24.0833C7.58087 24.0833 7.90613 24.4004 7.90613 24.7916C7.90613 25.1828 7.58087 25.4999 7.17964 25.4999C5.17339 25.4999 3.54706 23.9143 3.54706 21.9583V20.8531C3.54706 19.5266 4.30736 18.3113 5.51704 17.7042L10.3958 15.2556C8.83866 13.9318 7.90603 12.0024 7.90603 9.91658C7.90603 6.00457 11.1587 2.83325 15.171 2.83325C17.6071 2.83325 19.8398 4.01184 21.1834 5.93936C21.4089 6.26291 21.3228 6.70346 20.9909 6.92336C20.6591 7.14326 20.2072 7.05924 19.9817 6.73569C18.9058 5.19221 17.1207 4.24992 15.171 4.24992C11.9611 4.24992 9.35902 6.78697 9.35902 9.91658C9.35902 11.9165 10.4296 13.7355 12.1492 14.7582C12.4917 14.9619 12.6 15.3978 12.391 15.7318C12.3128 15.8568 12.2012 15.9498 12.0743 16.0065ZM18.0207 22.0529L12.0896 24.6815C11.3116 25.0263 10.812 25.7827 10.812 26.616V27.6249C10.812 28.7985 11.7878 29.7499 12.9915 29.7499H28.9744C30.1781 29.7499 31.1539 28.7985 31.1539 27.6249V26.616C31.1539 25.7827 30.6544 25.0263 29.8763 24.6815L23.9452 22.0529C23.0405 22.4473 22.038 22.6666 20.983 22.6666C19.9279 22.6666 18.9254 22.4473 18.0207 22.0529ZM16.5109 21.1659C14.8108 19.8694 13.718 17.8508 13.718 15.5833C13.718 11.6712 16.9706 8.49992 20.983 8.49992C24.9953 8.49992 28.2479 11.6712 28.2479 15.5833C28.2479 17.8508 27.1551 19.8694 25.455 21.1659L30.4775 23.3918C31.7743 23.9665 32.6069 25.2272 32.6069 26.616V27.6249C32.6069 29.5809 30.9806 31.1666 28.9744 31.1666H12.9915C10.9853 31.1666 9.35902 29.5809 9.35902 27.6249V26.616C9.35902 25.2272 10.1916 23.9665 11.4884 23.3918L16.5109 21.1659ZM20.983 21.2499C24.1928 21.2499 26.7949 18.7129 26.7949 15.5833C26.7949 12.4536 24.1928 9.91658 20.983 9.91658C17.7731 9.91658 15.171 12.4536 15.171 15.5833C15.171 18.7129 17.7731 21.2499 20.983 21.2499Z" fill="#F0ECE6"/>
</g>
</svg>
