<svg width="75" height="82" viewBox="0 0 75 82" fill="none" xmlns="http://www.w3.org/2000/svg">
<g id="users-svgrepo-com (1) 1">
<path id="Vector" d="M43.75 41.8543C41.4322 41.8543 39.1666 41.1029 37.2394 39.6949C35.3122 38.2873 33.8103 36.2861 32.9234 33.9449C32.0362 31.6037 31.8044 29.0275 32.2566 26.5422C32.7087 24.0568 33.8247 21.7738 35.4638 19.9819C37.1025 18.1901 39.1906 16.9698 41.4637 16.4755C43.7369 15.9811 46.0931 16.2348 48.2347 17.2045C50.3759 18.1743 52.2062 19.8165 53.4937 21.9235C54.7816 24.0305 55.4688 26.5077 55.4688 29.0418C55.4688 32.4398 54.2341 35.6988 52.0366 38.1017C49.8387 40.5043 46.8581 41.8543 43.75 41.8543ZM43.75 21.3543C42.3594 21.3543 41 21.8051 39.8438 22.6498C38.6875 23.4946 37.7863 24.6952 37.2541 26.0999C36.7219 27.5046 36.5825 29.0503 36.8537 30.5415C37.1253 32.0327 37.7947 33.4025 38.7781 34.4777C39.7616 35.5529 41.0144 36.2851 42.3781 36.5817C43.7422 36.8782 45.1559 36.7258 46.4406 36.144C47.7256 35.5621 48.8237 34.5767 49.5963 33.3127C50.3687 32.0485 50.7812 30.5622 50.7812 29.0418C50.7812 27.0029 50.0403 25.0476 48.7219 23.6059C47.4031 22.1642 45.6147 21.3543 43.75 21.3543Z" fill="#F2EDE7"/>
<path id="Vector_2" d="M65.625 65.7709C65.0059 65.762 64.4144 65.4894 63.9766 65.0107C63.5387 64.532 63.2894 63.8853 63.2812 63.2084C63.2812 56.5459 59.9687 52.1042 43.75 52.1042C27.5312 52.1042 24.2187 56.5459 24.2187 63.2084C24.2187 63.888 23.9718 64.5399 23.5323 65.0203C23.0928 65.501 22.4966 65.7709 21.875 65.7709C21.2534 65.7709 20.6572 65.501 20.2177 65.0203C19.7782 64.5399 19.5312 63.888 19.5312 63.2084C19.5312 46.9792 36.5 46.9792 43.75 46.9792C51 46.9792 67.9687 46.9792 67.9687 63.2084C67.9606 63.8853 67.7112 64.532 67.2734 65.0107C66.8356 65.4894 66.2441 65.762 65.625 65.7709Z" fill="#F2EDE7"/>
<path id="Vector_3" d="M26 44.6217H25C22.5136 44.359 20.2245 43.0272 18.6363 40.9191C17.0481 38.811 16.2909 36.0996 16.5312 33.3809C16.7716 30.6625 17.9898 28.1598 19.9179 26.4233C21.846 24.6869 24.3261 23.859 26.8125 24.1218C27.1313 24.1368 27.4439 24.2228 27.7313 24.3745C28.0186 24.5263 28.2746 24.7406 28.4835 25.0043C28.6924 25.268 28.8499 25.5756 28.9462 25.9083C29.0426 26.2409 29.0758 26.5915 29.0438 26.9386C29.0118 27.2858 28.9154 27.6221 28.7603 27.927C28.6053 28.232 28.3949 28.499 28.1421 28.712C27.8893 28.9249 27.5994 29.0791 27.2902 29.1652C26.9809 29.2513 26.6589 29.2674 26.3437 29.2126C25.7337 29.1461 25.1177 29.2147 24.5324 29.4143C23.9472 29.6139 23.4048 29.9404 22.9375 30.3743C22.4629 30.7929 22.0693 31.3105 21.7795 31.8971C21.4898 32.4837 21.3098 33.1275 21.25 33.7909C21.1854 34.4626 21.2437 35.1419 21.4215 35.7886C21.5993 36.4358 21.8931 37.0374 22.2858 37.5588C22.6784 38.0805 23.1621 38.5114 23.7085 38.8264C24.255 39.1414 24.8533 39.3345 25.4687 39.3942C26.486 39.4896 27.5045 39.2261 28.375 38.6426C28.9054 38.2849 29.5442 38.1718 30.1508 38.3289C30.7573 38.4858 31.2819 38.8999 31.6094 39.4797C31.9369 40.0598 32.04 40.7582 31.8966 41.4214C31.7528 42.0845 31.3741 42.6582 30.8437 43.0159C29.3943 44.0266 27.7187 44.5821 26 44.6217Z" fill="#F2EDE7"/>
<path id="Vector_4" d="M9.375 63.2083C8.75591 63.1994 8.16447 62.9267 7.72666 62.448C7.28888 61.9694 7.03935 61.3226 7.03125 60.6458C7.03125 51.4208 9.28125 45.2708 20.3125 45.2708C20.9341 45.2708 21.5303 45.5407 21.9698 46.0214C22.4093 46.5018 22.6563 47.1537 22.6563 47.8333C22.6563 48.5128 22.4093 49.1647 21.9698 49.6451C21.5303 50.1258 20.9341 50.3958 20.3125 50.3958C12.9688 50.3958 11.7188 52.9583 11.7188 60.6458C11.7107 61.3226 11.4611 61.9694 11.0233 62.448C10.5855 62.9267 9.9941 63.1994 9.375 63.2083Z" fill="#F2EDE7"/>
</g>
</svg>
