<svg width="56" height="57" viewBox="0 0 56 57" fill="none" xmlns="http://www.w3.org/2000/svg">
<g id="user-svgrepo-com 1">
<path id="Vector" d="M46.0198 7.85278V12.4411M46.0198 12.4411V17.0294M46.0198 12.4411H50.5248M46.0198 12.4411H41.5149M37.0099 19.3235C37.0099 24.3915 32.9759 28.5001 28 28.5001C23.024 28.5001 18.9901 24.3915 18.9901 19.3235C18.9901 14.2554 23.024 10.1469 28 10.1469C32.9759 10.1469 37.0099 14.2554 37.0099 19.3235ZM21.9581 33.0883H34.042C35.1289 33.0883 35.6722 33.0883 36.1582 33.1941C37.8406 33.56 39.2955 34.8459 40.1104 36.6879C40.346 37.2199 40.5179 37.8521 40.8616 39.1169C41.2745 40.6363 41.4811 41.3961 41.509 42.0089C41.6074 44.1709 40.4602 46.123 38.7569 46.6919C38.2742 46.8532 37.6212 46.8532 36.3152 46.8532H19.6849C18.3789 46.8532 17.7259 46.8532 17.2431 46.6919C15.5397 46.123 14.3925 44.1709 14.491 42.0089C14.519 41.3961 14.7254 40.6363 15.1384 39.1169C15.4821 37.8521 15.654 37.2199 15.8895 36.6879C16.7045 34.8459 18.1593 33.56 19.8417 33.1941C20.3278 33.0883 20.8712 33.0883 21.9581 33.0883Z" stroke="#F2EDE7" stroke-width="1.55" stroke-linecap="round" stroke-linejoin="round"/>
</g>
</svg>
